HIERARCHY
ROOT Hips
{
	OFFSET -344.582550 89.219658 583.924072
	CHANNELS 6 Xposition Yposition Zposition Zrotation Yrotation Xrotation 
	JOINT Spine
	{
		OFFSET 0.000000 8.814246 -2.080107
		CHANNELS 3 Zrotation Yrotation Xrotation
		JOINT Spine1
		{
			OFFSET -0.000000 8.844141 0.000000
			CHANNELS 3 Zrotation Yrotation Xrotation
			JOINT Spine2
			{
				OFFSET 0.000000 11.682268 0.000000
				CHANNELS 3 Zrotation Yrotation Xrotation
				JOINT Spine3
				{
					OFFSET 0.000000 11.746700 0.000000
					CHANNELS 3 Zrotation Yrotation Xrotation
					JOINT Neck
					{
						OFFSET 0.000000 17.658264 0.000000
						CHANNELS 3 Zrotation Yrotation Xrotation
						JOINT Neck1
						{
							OFFSET 0.000000 5.101515 0.000000
							CHANNELS 3 Zrotation Yrotation Xrotation
							JOINT Head
							{
								OFFSET -0.000000 5.101515 -0.000000
								CHANNELS 3 Zrotation Yrotation Xrotation
								JOINT HeadEnd
								{
									OFFSET 0.000000 11.655085 0.000000
									CHANNELS 3 Zrotation Yrotation Xrotation
									End Site
									{
										OFFSET 0.000000 0.000000 0.000000
									}
								}
							}
						}
					}
					JOINT RightShoulder
					{
						OFFSET -2.625389 11.175210 -0.000000
						CHANNELS 3 Zrotation Yrotation Xrotation
						JOINT RightArm
						{
							OFFSET 0.000000 10.434715 0.000000
							CHANNELS 3 Zrotation Yrotation Xrotation
							JOINT RightForeArm
							{
								OFFSET -0.000000 29.628420 -0.000000
								CHANNELS 3 Zrotation Yrotation Xrotation
								JOINT RightHand
								{
									OFFSET 0.000000 22.857611 -0.000000
									CHANNELS 3 Zrotation Yrotation Xrotation
									JOINT RightHandThumb1
									{
										OFFSET -2.867323 3.959563 2.944291
										CHANNELS 3 Zrotation Yrotation Xrotation
										JOINT RightHandThumb2
										{
											OFFSET -0.000000 3.350399 0.000000
											CHANNELS 3 Zrotation Yrotation Xrotation
											JOINT RightHandThumb3
											{
												OFFSET -0.000000 3.756509 0.000000
												CHANNELS 3 Zrotation Yrotation Xrotation
												JOINT RightHandThumb4
												{
													OFFSET -0.000000 3.147345 0.000000
													CHANNELS 3 Zrotation Yrotation Xrotation
													End Site
													{
														OFFSET 0.000000 0.000000 0.000000
													}
												}
											}
										}
									}
									JOINT RightHandIndex1
									{
										OFFSET -0.086752 10.030893 2.345280
										CHANNELS 3 Zrotation Yrotation Xrotation
										JOINT RightHandIndex2
										{
											OFFSET -0.000000 4.061090 -0.000000
											CHANNELS 3 Zrotation Yrotation Xrotation
											JOINT RightHandIndex3
											{
												OFFSET 0.000000 3.248873 -0.000000
												CHANNELS 3 Zrotation Yrotation Xrotation
												JOINT RightHandIndex4
												{
													OFFSET 0.000000 2.639709 -0.000000
													CHANNELS 3 Zrotation Yrotation Xrotation
													End Site
													{
														OFFSET 0.000000 0.000000 0.000000
													}
												}
											}
										}
									}
									JOINT RightHandMiddle1
									{
										OFFSET 0.104102 9.502952 0.006768
										CHANNELS 3 Zrotation Yrotation Xrotation
										JOINT RightHandMiddle2
										{
											OFFSET -0.000000 4.568727 -0.000000
											CHANNELS 3 Zrotation Yrotation Xrotation
											JOINT RightHandMiddle3
											{
												OFFSET -0.000000 3.654981 -0.000000
												CHANNELS 3 Zrotation Yrotation Xrotation
												JOINT RightHandMiddle4
												{
													OFFSET -0.000000 2.741236 -0.000000
													CHANNELS 3 Zrotation Yrotation Xrotation
													End Site
													{
														OFFSET 0.000000 0.000000 0.000000
													}
												}
											}
										}
									}
									JOINT RightHandRing1
									{
										OFFSET 0.086752 8.921708 -2.267442
										CHANNELS 3 Zrotation Yrotation Xrotation
										JOINT RightHandRing2
										{
											OFFSET -0.000000 4.061090 0.000000
											CHANNELS 3 Zrotation Yrotation Xrotation
											JOINT RightHandRing3
											{
												OFFSET 0.000000 3.654981 -0.000000
												CHANNELS 3 Zrotation Yrotation Xrotation
												JOINT RightHandRing4
												{
													OFFSET 0.000000 2.741236 -0.000000
													CHANNELS 3 Zrotation Yrotation Xrotation
													End Site
													{
														OFFSET 0.000000 0.000000 0.000000
													}
												}
											}
										}
									}
									JOINT RightHandPinky1
									{
										OFFSET -0.173504 7.976997 -4.467199
										CHANNELS 3 Zrotation Yrotation Xrotation
										JOINT RightHandPinky2
										{
											OFFSET -0.000000 3.350399 0.000000
											CHANNELS 3 Zrotation Yrotation Xrotation
											JOINT RightHandPinky3
											{
												OFFSET 0.000000 2.842763 -0.000000
												CHANNELS 3 Zrotation Yrotation Xrotation
												JOINT RightHandPinky4
												{
													OFFSET -0.000000 2.639709 0.000000
													CHANNELS 3 Zrotation Yrotation Xrotation
													End Site
													{
														OFFSET 0.000000 0.000000 0.000000
													}
												}
											}
										}
									}
									JOINT RightForeArmEnd
									{
										OFFSET 0.000000 0.000000 0.000000
										CHANNELS 3 Zrotation Yrotation Xrotation
										End Site
										{
											OFFSET 0.000000 0.000000 0.000000
										}
									}
								}
								JOINT RightArmEnd
								{
									OFFSET 0.000000 0.000000 0.000000
									CHANNELS 3 Zrotation Yrotation Xrotation
									End Site
									{
										OFFSET 0.000000 0.000000 0.000000
									}
								}
							}
						}
					}
					JOINT LeftShoulder
					{
						OFFSET 2.625389 11.175210 0.000000
						CHANNELS 3 Zrotation Yrotation Xrotation
						JOINT LeftArm
						{
							OFFSET -0.000000 10.813635 0.000000
							CHANNELS 3 Zrotation Yrotation Xrotation
							JOINT LeftForeArm
							{
								OFFSET 0.000000 28.724781 -0.000000
								CHANNELS 3 Zrotation Yrotation Xrotation
								JOINT LeftHand
								{
									OFFSET 0.644384 25.716167 -0.328871
									CHANNELS 3 Zrotation Yrotation Xrotation
									JOINT LeftHandThumb1
									{
										OFFSET 2.867323 3.959563 2.944291
										CHANNELS 3 Zrotation Yrotation Xrotation
										JOINT LeftHandThumb2
										{
											OFFSET 0.000000 3.350399 -0.000000
											CHANNELS 3 Zrotation Yrotation Xrotation
											JOINT LeftHandThumb3
											{
												OFFSET 0.000000 3.756509 0.000000
												CHANNELS 3 Zrotation Yrotation Xrotation
												JOINT LeftHandThumb4
												{
													OFFSET 0.000000 3.100000 0.000000
													CHANNELS 3 Zrotation Yrotation Xrotation
													End Site
													{
														OFFSET 0.000000 0.000000 0.000000
													}
												}
											}
										}
									}
									JOINT LeftHandIndex1
									{
										OFFSET 0.086752 10.030893 2.345280
										CHANNELS 3 Zrotation Yrotation Xrotation
										JOINT LeftHandIndex2
										{
											OFFSET 0.000000 4.061090 0.000000
											CHANNELS 3 Zrotation Yrotation Xrotation
											JOINT LeftHandIndex3
											{
												OFFSET -0.000000 3.248873 -0.000000
												CHANNELS 3 Zrotation Yrotation Xrotation
												JOINT LeftHandIndex4
												{
													OFFSET -0.000000 2.639709 -0.000000
													CHANNELS 3 Zrotation Yrotation Xrotation
													End Site
													{
														OFFSET 0.000000 0.000000 0.000000
													}
												}
											}
										}
									}
									JOINT LeftHandMiddle1
									{
										OFFSET -0.104102 9.502952 0.006768
										CHANNELS 3 Zrotation Yrotation Xrotation
										JOINT LeftHandMiddle2
										{
											OFFSET 0.000000 4.568727 0.000000
											CHANNELS 3 Zrotation Yrotation Xrotation
											JOINT LeftHandMiddle3
											{
												OFFSET -0.000000 3.654981 -0.000000
												CHANNELS 3 Zrotation Yrotation Xrotation
												JOINT LeftHandMiddle4
												{
													OFFSET -0.000000 2.741236 -0.000000
													CHANNELS 3 Zrotation Yrotation Xrotation
													End Site
													{
														OFFSET 0.000000 0.000000 0.000000
													}
												}
											}
										}
									}
									JOINT LeftHandRing1
									{
										OFFSET -0.086752 8.921708 -2.267442
										CHANNELS 3 Zrotation Yrotation Xrotation
										JOINT LeftHandRing2
										{
											OFFSET 0.000000 4.061090 0.000000
											CHANNELS 3 Zrotation Yrotation Xrotation
											JOINT LeftHandRing3
											{
												OFFSET -0.000000 3.654981 -0.000000
												CHANNELS 3 Zrotation Yrotation Xrotation
												JOINT LeftHandRing4
												{
													OFFSET -0.000000 2.741236 -0.000000
													CHANNELS 3 Zrotation Yrotation Xrotation
													End Site
													{
														OFFSET 0.000000 0.000000 0.000000
													}
												}
											}
										}
									}
									JOINT LeftHandPinky1
									{
										OFFSET 0.173504 7.976997 -4.467199
										CHANNELS 3 Zrotation Yrotation Xrotation
										JOINT LeftHandPinky2
										{
											OFFSET 0.000000 3.350399 0.000000
											CHANNELS 3 Zrotation Yrotation Xrotation
											JOINT LeftHandPinky3
											{
												OFFSET 0.000000 2.842763 0.000000
												CHANNELS 3 Zrotation Yrotation Xrotation
												JOINT LeftHandPinky4
												{
													OFFSET 0.000000 2.639709 -0.000000
													CHANNELS 3 Zrotation Yrotation Xrotation
													End Site
													{
														OFFSET 0.000000 0.000000 0.000000
													}
												}
											}
										}
									}
									JOINT LeftForeArmEnd
									{
										OFFSET 0.000000 0.000000 0.000000
										CHANNELS 3 Zrotation Yrotation Xrotation
										End Site
										{
											OFFSET 0.000000 0.000000 0.000000
										}
									}
								}
								JOINT LeftArmEnd
								{
									OFFSET 0.000000 0.000000 0.000000
									CHANNELS 3 Zrotation Yrotation Xrotation
									End Site
									{
										OFFSET 0.000000 0.000000 0.000000
									}
								}
							}
						}
					}
				}
			}
		}
	}
	JOINT RightUpLeg
	{
		OFFSET -11.289943 0.000000 -0.000000
		CHANNELS 3 Zrotation Yrotation Xrotation
		JOINT RightLeg
		{
			OFFSET -0.000000 -38.200325 -0.000000
			CHANNELS 3 Zrotation Yrotation Xrotation
			JOINT RightFoot
			{
				OFFSET -0.000000 -39.900856 0.000000
				CHANNELS 3 Zrotation Yrotation Xrotation
				JOINT RightToeBase
				{
					OFFSET 0.000000 -0.000000 15.261641
					CHANNELS 3 Zrotation Yrotation Xrotation
					JOINT RightToeBaseEnd
					{
						OFFSET -0.000000 -0.000000 7.370709
						CHANNELS 3 Zrotation Yrotation Xrotation
						End Site
						{
							OFFSET 0.000000 0.000000 0.000000
						}
					}
				}
				JOINT RightLegEnd
				{
					OFFSET 0.000000 0.000000 0.000000
					CHANNELS 3 Zrotation Yrotation Xrotation
					End Site
					{
						OFFSET 0.000000 0.000000 0.000000
					}
				}
			}
			JOINT RightUpLegEnd
			{
				OFFSET 0.000000 0.000000 0.000000
				CHANNELS 3 Zrotation Yrotation Xrotation
				End Site
				{
					OFFSET 0.000000 0.000000 0.000000
				}
			}
		}
	}
	JOINT LeftUpLeg
	{
		OFFSET 11.315661 -0.000000 0.000000
		CHANNELS 3 Zrotation Yrotation Xrotation
		JOINT LeftLeg
		{
			OFFSET -0.000000 -38.200325 -0.000000
			CHANNELS 3 Zrotation Yrotation Xrotation
			JOINT LeftFoot
			{
				OFFSET -0.000000 -39.900856 0.000000
				CHANNELS 3 Zrotation Yrotation Xrotation
				JOINT LeftToeBase
				{
					OFFSET 0.000000 -0.000000 15.261641
					CHANNELS 3 Zrotation Yrotation Xrotation
					JOINT LeftToeBaseEnd
					{
						OFFSET -0.000000 0.000000 7.539996
						CHANNELS 3 Zrotation Yrotation Xrotation
						End Site
						{
							OFFSET 0.000000 0.000000 0.000000
						}
					}
				}
				JOINT LeftLegEnd
				{
					OFFSET 0.000000 0.000000 0.000000
					CHANNELS 3 Zrotation Yrotation Xrotation
					End Site
					{
						OFFSET 0.000000 0.000000 0.000000
					}
				}
			}
			JOINT LeftUpLegEnd
			{
				OFFSET 0.000000 0.000000 0.000000
				CHANNELS 3 Zrotation Yrotation Xrotation
				End Site
				{
					OFFSET 0.000000 0.000000 0.000000
				}
			}
		}
	}
}
MOTION
Frames: 4
Frame Time: 0.016667
0.000000 85.456291 0.000000 -1.060135 -0.227834 -23.211784 2.322709 -0.297220 12.236113 0.341520 -0.185955 6.095392 -2.927263 -0.107008 18.660201 -3.766547 -0.127707 10.148422 -8.554238 3.011372 10.670643 -1.052736 0.746531 -1.072306 -1.427619 -1.392408 -19.988149 0.000000 0.000000 0.000000 91.634745 -0.442339 15.425826 54.665523 -30.477000 24.470924 -0.226759 15.539895 21.119819 5.921651 20.191024 -2.405218 13.495597 32.597274 68.996586 0.000003 0.000003 0.000009 0.000134 -0.000001 0.000005 0.000000 0.000000 0.000000 13.796140 -10.938028 1.277707 9.837293 0.396116 1.450871 9.837298 -0.105893 1.372970 0.000000 0.000000 0.000000 13.018493 -5.780196 0.547168 9.259837 0.477044 0.562421 9.259582 -0.040827 0.482464 0.000000 0.000000 0.000000 14.759332 1.948519 1.684468 10.371667 -0.929828 -0.808298 10.370477 0.055660 -0.609709 0.000000 0.000000 0.000000 15.656370 10.308873 0.915056 10.776875 -1.765082 -2.455533 10.769448 0.171573 -2.081882 0.000000 0.000000 0.000000 0.000000 0.000000 0.000000 0.000000 0.000000 0.000000 -92.594154 0.517031 10.482302 -55.364457 20.044872 9.159416 -0.966445 -10.157831 39.026323 -1.252407 -30.847613 -11.535674 -13.450124 -32.590798 68.901453 0.011028 0.011022 -0.022262 0.011023 0.011028 -0.022273 0.000000 0.000000 0.000000 -11.776063 -6.462783 0.977572 -8.183229 0.418838 -1.217398 -8.182888 -0.087328 -1.146339 0.000000 0.000000 0.000000 -11.505367 -1.486834 0.105365 -8.159039 0.488683 -0.513053 -8.158794 0.006084 -0.433014 0.000000 0.000000 0.000000 -14.670412 7.057580 0.049814 -10.405230 -0.938801 0.816612 -10.403863 0.035557 0.635699 0.000000 0.000000 0.000000 -17.068952 15.932079 -0.778814 -11.779098 -1.717910 2.681325 -11.773773 0.235106 2.277516 0.000000 0.000000 0.000000 0.000000 0.000000 0.000000 0.000000 0.000000 0.000000 -5.285096 -1.941737 14.891483 -0.561212 -0.964231 30.047484 4.622950 -4.876317 6.481491 -0.907080 1.864289 -16.513633 0.000000 0.000000 0.000000 0.000000 0.000000 0.000000 0.000000 0.000000 0.000000 4.159545 -1.943718 10.882136 0.172503 0.240085 35.792634 -0.279231 6.748768 5.369925 0.530027 -0.512076 -20.503864 0.000000 0.000000 0.000000 0.000000 0.000000 0.000000 0.000000 0.000000 0.000000 
0.002896 85.436687 0.008020 -1.055460 -0.227404 -23.243325 2.320272 -0.300975 12.250626 0.345167 -0.191111 6.108189 -2.879906 -0.164849 18.636570 -3.731844 -0.147584 10.148198 -8.595426 3.041153 10.674617 -1.055317 0.775821 -1.061727 -1.442539 -1.395963 -19.953910 0.000000 0.000000 0.000000 91.620367 -0.437617 15.392400 54.917667 -30.100451 24.410264 -0.244657 15.290155 20.917134 5.929339 20.220429 -2.419019 13.495488 32.597524 68.996534 0.000003 0.000003 -0.000012 0.000134 -0.000001 0.000011 0.000000 0.000000 0.000000 13.759811 -10.931214 1.263974 9.810178 0.396960 1.450165 9.809987 -0.105524 1.371891 0.000000 0.000000 0.000000 12.986855 -5.774415 0.562111 9.238071 0.477873 0.562208 9.237777 -0.040712 0.482254 0.000000 0.000000 0.000000 14.745604 1.952653 1.730831 10.359390 -0.930207 -0.808930 10.358105 0.055411 -0.608616 0.000000 0.000000 0.000000 15.664571 10.310048 0.987236 10.769357 -1.764705 -2.452025 10.764492 0.169896 -2.078858 0.000000 0.000000 0.000000 0.000000 0.000000 0.000000 0.000000 0.000000 0.000000 -92.591335 0.517119 10.496409 -55.464957 19.954266 9.094358 -0.967165 -10.104115 39.006657 -1.199943 -31.005280 -11.534063 -13.451219 -32.590239 68.903819 0.011028 0.011022 -0.026210 0.011023 0.011028 -0.020412 0.000000 0.000000 0.000000 -11.868798 -6.446045 0.947223 -8.251625 0.419548 -1.227469 -8.251477 -0.086910 -1.155731 0.000000 0.000000 0.000000 -11.586322 -1.472634 0.085313 -8.217306 0.488928 -0.512577 -8.216993 0.006433 -0.432450 0.000000 0.000000 0.000000 -14.723507 7.066432 0.040248 -10.442221 -0.939236 0.815202 -10.440939 0.035248 0.635349 0.000000 0.000000 0.000000 -17.088015 15.935405 -0.774930 -11.792947 -1.718319 2.684392 -11.787635 0.234762 2.278776 0.000000 0.000000 0.000000 0.000000 0.000000 0.000000 0.000000 0.000000 0.000000 -5.283960 -1.996252 14.853327 -0.561493 -0.961169 30.161152 4.592942 -4.828350 6.417307 -0.906794 1.859856 -16.514762 0.000000 0.000000 0.000000 0.000000 0.000000 0.000000 0.000000 0.000000 0.000000 4.199869 -1.926756 10.861494 0.173375 0.241048 35.862333 -0.290476 6.711814 5.334640 0.525802 -0.514415 -20.536316 0.000000 0.000000 0.000000 0.000000 0.000000 0.000000 0.000000 0.000000 0.000000 
0.006877 85.420286 0.011194 -1.050146 -0.233624 -23.261167 2.321238 -0.303219 12.256587 0.347009 -0.195820 6.126320 -2.840387 -0.219248 18.608920 -3.705493 -0.165970 10.152079 -8.630930 3.076165 10.688706 -1.057567 0.824110 -1.058603 -1.454678 -1.406792 -19.938533 0.000000 0.000000 0.000000 91.617315 -0.436015 15.358756 55.155656 -29.728991 24.358700 -0.257676 15.082262 20.767698 5.939987 20.353951 -2.538271 13.495364 32.598675 68.996260 0.000003 0.000003 0.000089 0.000134 -0.000001 -0.000038 0.000000 0.000000 0.000000 13.699546 -10.924040 1.395310 9.781505 0.397646 1.449186 9.781313 -0.105187 1.367834 0.000000 0.000000 0.000000 12.940980 -5.767987 0.674524 9.210028 0.478679 0.562010 9.210059 -0.040597 0.482055 0.000000 0.000000 0.000000 14.708771 1.959330 1.827551 10.328124 -0.930576 -0.809414 10.326531 0.055167 -0.607570 0.000000 0.000000 0.000000 15.637045 10.317649 1.073165 10.736739 -1.764347 -2.446553 10.731759 0.168310 -2.074093 0.000000 0.000000 0.000000 0.000000 0.000000 0.000000 0.000000 0.000000 0.000000 -92.605745 0.520317 10.508663 -55.513347 19.947321 9.034937 -0.968676 -10.117588 39.010624 -1.122445 -31.170258 -11.531952 -13.456461 -32.600272 68.883257 0.011028 0.011022 0.010837 0.011023 0.011028 -0.037900 0.000000 0.000000 0.000000 -11.945389 -6.430914 0.861510 -8.314641 0.420247 -1.236882 -8.314201 -0.086418 -1.164562 0.000000 0.000000 0.000000 -11.665720 -1.458379 0.020383 -8.276377 0.489150 -0.512232 -8.276151 0.006750 -0.431777 0.000000 0.000000 0.000000 -14.808692 7.080452 -0.010730 -10.499670 -0.939653 0.814079 -10.498404 0.034961 0.635033 0.000000 0.000000 0.000000 -17.174532 15.948267 -0.821931 -11.845746 -1.718771 2.696350 -11.840427 0.234467 2.281970 0.000000 0.000000 0.000000 0.000000 0.000000 0.000000 0.000000 0.000000 0.000000 -5.282884 -2.040703 14.796806 -0.561746 -0.959153 30.266908 4.565622 -4.781841 6.370226 -0.907288 1.857000 -16.517090 0.000000 0.000000 0.000000 0.000000 0.000000 0.000000 0.000000 0.000000 0.000000 4.240209 -1.896710 10.823429 0.174067 0.241880 35.929260 -0.300105 6.673387 5.314600 0.523345 -0.516018 -20.571013 0.000000 0.000000 0.000000 0.000000 0.000000 0.000000 0.000000 0.000000 0.000000 
0.016273 85.405483 0.012485 -1.043482 -0.248504 -23.272653 2.335816 -0.305538 12.261537 0.348457 -0.200447 6.140018 -2.813923 -0.266431 18.585150 -3.685298 -0.181954 10.154459 -8.663063 3.110782 10.707982 -1.058899 0.873127 -1.048445 -1.467376 -1.419842 -19.932264 0.000000 0.000000 0.000000 91.610119 -0.433401 15.329042 55.234896 -29.658909 24.387982 -0.275933 15.143456 20.607431 5.972582 20.594504 -2.538131 13.495607 32.600265 68.996226 0.000003 0.000003 -0.000308 0.000134 -0.000001 0.000149 0.000000 0.000000 0.000000 13.627917 -10.914258 1.505827 9.742662 0.398216 1.448051 9.742500 -0.104880 1.363119 0.000000 0.000000 0.000000 12.885311 -5.759486 0.733564 9.173555 0.479465 0.561824 9.173210 -0.040484 0.481864 0.000000 0.000000 0.000000 14.655029 1.965217 1.827681 10.289816 -0.930936 -0.809694 10.288596 0.054930 -0.606571 0.000000 0.000000 0.000000 15.575752 10.326573 1.029583 10.701024 -1.764008 -2.438803 10.695890 0.166758 -2.067486 0.000000 0.000000 0.000000 0.000000 0.000000 0.000000 0.000000 0.000000 0.000000 -92.623900 0.524104 10.518630 -55.543480 19.979763 8.978793 -0.969341 -10.178169 39.027170 -1.052228 -31.277473 -11.543797 -13.460496 -32.596297 68.896867 0.011028 0.011022 -0.012480 0.011023 0.011028 -0.026883 0.000000 0.000000 0.000000 -11.997355 -6.419593 0.771588 -8.358475 0.420927 -1.242331 -8.360435 -0.085861 -1.169728 0.000000 0.000000 0.000000 -11.719176 -1.448046 -0.033888 -8.316781 0.489348 -0.512068 -8.316261 0.007038 -0.431009 0.000000 0.000000 0.000000 -14.857986 7.087118 -0.025276 -10.533964 -0.940054 0.813221 -10.532476 0.034697 0.634750 0.000000 0.000000 0.000000 -17.204408 15.952840 -0.798541 -11.870197 -1.719256 2.701196 -11.864856 0.234220 2.285029 0.000000 0.000000 0.000000 0.000000 0.000000 0.000000 0.000000 0.000000 0.000000 -5.282019 -2.068173 14.731759 -0.561984 -0.957408 30.368692 4.543544 -4.742292 6.331572 -0.909649 1.854234 -16.518469 0.000000 0.000000 0.000000 0.000000 0.000000 0.000000 0.000000 0.000000 0.000000 4.277613 -1.858743 10.780635 0.174593 0.242585 35.994159 -0.303825 6.639746 5.300414 0.517913 -0.518621 -20.602070 0.000000 0.000000 0.000000 0.000000 0.000000 0.000000 0.000000 0.000000 0.000000 
